<svg xmlns="http://www.w3.org/2000/svg" width="24" height="24" fill="none" stroke="currentColor" stroke-width="2" stroke-linecap="round" stroke-linejoin="round"><rect id="backgroundrect" width="100%" height="100%" x="0" y="0" fill="none" stroke="none"/><g class="currentLayer" style=""><title>Layer 1</title><path d="M9,19.65420561283827 c-5,1.5 -5,-2.5 -7,-3 m14,6 v-3.87 a3.37,3.37 0 0 0 -0.9400000000000006,-2.6100000000000003 c3.14,-0.3500000000000003 6.44,-1.54 6.44,-7 A5.44,5.44 0 0 0 20,5.424205612838268 A5.07,5.07 0 0 0 19.91,1.6542056128382683 S18.73,1.3042056128382686 16,3.1342056128382687 a13.38,13.38 0 0 0 -7,0 C6.27,1.3042056128382686 5.09,1.6542056128382683 5.09,1.6542056128382683 A5.07,5.07 0 0 0 5,5.424205612838268 a5.44,5.44 0 0 0 -1.5,3.7800000000000002 c0,5.42 3.3,6.61 6.44,7 A3.37,3.37 0 0 0 9,18.784205612838267 V22.65420561283827 " id="svg_1" class="selected" stroke="#6d6d6d" stroke-opacity="1"/></g></svg>