<svg xmlns="http://www.w3.org/2000/svg" width="24" height="24" fill="none" stroke="currentColor" stroke-width="2" stroke-linecap="round" stroke-linejoin="round"><rect id="backgroundrect" width="100%" height="100%" x="0" y="0" fill="none" stroke="none"/><g class="currentLayer" style=""><title>Layer 1</title><path d="M22.65 14.39L12 22.13 1.35 14.39a.84.84 0 0 1-.3-.94l1.22-3.78 2.44-7.51A.42.42 0 0 1 4.82 2a.43.43 0 0 1 .58 0 .42.42 0 0 1 .11.18l2.44 7.49h8.1l2.44-7.51A.42.42 0 0 1 18.6 2a.43.43 0 0 1 .58 0 .42.42 0 0 1 .11.18l2.44 7.51L23 13.45a.84.84 0 0 1-.35.94z" id="svg_1" class="selected" stroke="#6d6d6d" stroke-opacity="1"/></g></svg>