<?xml version="1.0" encoding="utf-8"?>
<!-- Generator: Adobe Illustrator 16.0.0, SVG Export Plug-In . SVG Version: 6.00 Build 0)  -->
<!DOCTYPE svg PUBLIC "-//W3C//DTD SVG 1.1//EN" "http://www.w3.org/Graphics/SVG/1.1/DTD/svg11.dtd" [
	<!ENTITY ns_flows "http://ns.adobe.com/Flows/1.0/">
	<!ENTITY ns_extend "http://ns.adobe.com/Extensibility/1.0/">
	<!ENTITY ns_ai "http://ns.adobe.com/AdobeIllustrator/10.0/">
	<!ENTITY ns_graphs "http://ns.adobe.com/Graphs/1.0/">
]>
<svg version="1.1" id="Layer_1" xmlns:x="&ns_extend;" xmlns:i="&ns_ai;" xmlns:graph="&ns_graphs;"
	 xmlns="http://www.w3.org/2000/svg" xmlns:xlink="http://www.w3.org/1999/xlink" xmlns:a="http://ns.adobe.com/AdobeSVGViewerExtensions/3.0/"
	 x="0px" y="0px" width="864px" height="864px" viewBox="0 0 864 864" enable-background="new 0 0 864 864" xml:space="preserve">
<path fill-rule="evenodd" clip-rule="evenodd" d="M442.973,712.764c-1.557-19.43-3.957-37.291-4.145-55.178
	c-0.187-17.795,1.849-35.617,3.024-55.348c-11.438,1.102-22.155,1.805-32.776,3.221c-24.807,3.311-49.538,7.199-74.362,10.35
	c-8.978,1.139-12.371,5.805-11.957,14.189c1.377,27.877,1.742,55.859,4.503,83.602c2.64,26.504-1.438,33.293-27.825,36.105
	c-6.115,0.652-12.34,0.984-18.47,0.648c-11.091-0.605-17.086-7.449-18.754-17.879c-1.772-11.078,5.409-15.066,14.729-16.912
	c4.563-0.902,9.093-1.977,12.362-2.695c-2.089-30.186-4.129-59.668-6.295-90.953c-19.924,2.434-39.902,5.703-60.008,7.055
	c-14.945,1.006-30.221,0.756-45.046-1.215c-13.074-1.738-21.58-11.188-25.977-23.701c-1.249-3.555-2.4-7.352-2.501-11.068
	c-0.503-18.662-8.701-27.381-27.842-33.586c-49.428-16.025-62.426-89.363-24.744-129.642c4.825-5.157,9.96-10.763,16.117-13.792
	c16.962-8.344,16.775-21.455,14.546-37.578c-8.886-64.264-17.081-128.631-24.714-193.057c-3.43-28.956,10.234-51.068,36.232-61.35
	c43.031-17.018,87.74-29.752,131.098-46.005c49.809-18.672,100.938-19.256,152.738-15.09c37.77,3.039,75.632,5.333,113.249,9.707
	c39.365,4.574,51.369,15.895,56.951,54.888c10.312,72.038,20.242,144.166,28.251,216.486c7.076,63.899,11.727,128.082,16.63,192.203
	c2.114,27.654-7.251,54.756-48.116,55.646c-33.028,0.719-65.947,5.607-98.97,7.84c-11.551,0.781-11.141,8.924-11.497,15.926
	c-1.444,28.352-2.283,56.736-3.106,85.113c-0.302,10.426,0.998,20.986-0.271,31.262c-0.661,5.354-4.67,14.014-8.284,14.629
	c-14.144,2.41-28.881,3.582-43.061,2.066c-3.805-0.406-8.384-11.811-8.869-18.439c-0.307-4.191,5.49-10.236,10.04-12.996
	C430.795,714.217,437.463,714.062,442.973,712.764z M139.806,521.502c-2.226-21.144-4.332-41.171-6.612-62.839
	C107.096,477.852,111.001,520.24,139.806,521.502z"/>
<path fill-rule="evenodd" clip-rule="evenodd" fill="#BDDC94" d="M152.473,212.065c0-7.059-0.026-14.118,0.007-21.178
	c0.047-9.904,5.202-15.61,14.509-18.48c43.373-13.375,86.692-26.925,130.042-40.37c2.698-0.837,5.475-1.551,8.267-1.93
	c21.007-2.852,27.38,1.996,30.317,23.161c4.818,34.701,9.605,69.407,14.285,104.126c1.262,9.372,2.674,18.783,2.98,28.21
	c0.609,18.689-5.592,29.827-23.594,33.779c-47.589,10.447-95.543,19.269-143.456,28.174c-12.583,2.338-16.522-7.467-18.012-17.251
	L152.473,212.065z M218.068,221.911c10.258,15.226,22.318,19.948,37.281,15.531c13.033-3.848,21.902-12.011,22.328-28.295
	C263.193,234.323,243.002,235.209,218.068,221.911z M210.743,209.531c-2.269-5.221-5.073-8.531-10.449-7.781
	c-3.624,0.25-9.124,5.75-7.078,11.709c1.022,2.977,6.316,8.552,9.525,7.452C205.881,219.835,210.67,217.5,210.743,209.531z
	 M308.114,184.661c-0.943-5.161-7.443-9.161-11.8-8.625c-4.624,0.964-7.071,6.943-6.878,10.192c0.19,3.179,2.254,9.272,8.168,9.083
	C303.67,194,307.67,189.5,308.114,184.661z"/>
<path fill-rule="evenodd" clip-rule="evenodd" fill="#ED1C24" d="M332.232,559.405c-11.336,0.067-19.876-8.418-19.953-19.83
	c-0.076-11.173,9.151-19.731,21.371-19.826c10.938-0.084,19.896,8.795,20.191,20.008
	C354.124,550.523,344.436,559.334,332.232,559.405z"/>
<polygon fill-rule="evenodd" clip-rule="evenodd" fill="#FFF200" points="226.692,477.608 217.025,476.333 215.736,466.222 
	205.639,466.222 204.135,476.333 195.326,477.608 195.326,484.805 204.779,486.645 206.715,498.817 215.738,498.603 
	217.455,485.785 226.692,484.805 "/>
<path fill="#00A79D" d="M425.317,547.219c-0.093-1.893-0.289-3.828-0.022-5.683c1.758-12.195-3.267-18.207-15.294-22.269
	c-40.226-13.587-65.774-43.313-83.245-80.656c-3.826-8.175-8.782-17.699,4.181-24.05c11.19-5.482,19.987-6.28,27.085,6.45
	c5.508,9.88,12.557,18.941,19.312,28.078c10.852,14.685,24.243,26.134,43.396,32.543c-3.719-35.095-6.895-68.907-10.955-102.614
	c-8.029-66.665-16.283-133.307-24.984-199.887c-3.672-28.101-7.797-56.208-13.433-83.964c-4.191-20.643-16.486-28.316-36.132-23.055
	c-31.887,8.539-63.492,18.207-94.969,28.181c-30.156,9.555-60.613,18.615-89.796,30.66c-26.573,10.969-36.168,31.459-32.991,59.444
	c4.216,37.133,8.18,74.295,12.538,111.411c3.781,32.2,7.958,64.354,12.1,97.666c13.654-5.492,22.945-1.026,27.418,10.677
	c4.615,12.08,0.118,21.557-11.437,28.038c-8.878,4.98-12.888,12.318-11.304,23.409c6.019,42.128,10.942,84.412,16.953,126.542
	c3.053,21.399,12.644,29.768,34.133,29.913c14.626,0.101,29.331-1.216,43.884-2.898c47.921-5.539,95.956-10.436,143.626-17.684
	C426.729,591.186,427.366,588.865,425.317,547.219z M162.188,340.577c-2.216-9.635-5.093-19.241-6.059-29.018
	c-3.813-38.587-7.68-77.193-10.128-115.88c-1.369-21.652,4.683-29.078,25.093-34.92c46.272-13.243,92.55-26.516,139.134-38.591
	c18.268-4.734,30.37,4.184,33.104,23.061c6.639,45.832,12.396,91.79,17.496,130.096c2.017,32.853-7.482,46.194-34.684,52.925
	c-34.374,8.504-69.08,15.677-103.695,23.18c-11.525,2.498-23.146,4.832-34.844,6.173
	C174.817,359.067,165.303,354.125,162.188,340.577z M222.61,578.318c-9.969,2.046-20.273,2.906-30.468,3.032
	c-2.102,0.026-4.782-0.089-5.947-7.674c-1.082-7.044,2.84-8.786,5.987-9.53c5.458-1.291,11.153-0.835,15.182-1.586
	c5.333,0,9.417-1.691,12.374-1.497c4.614,0.303,7.947,4.703,8.559,7.805C229.619,575.575,225.232,577.781,222.61,578.318z
	 M223.04,491.417c-4.444,0.486,2.142,12.111-7.734,12.63c-2.158,0.113-8.071,1.436-9.883,0.124
	c-3.596-2.602-2.863-7.49-6.445-11.296c-6.104-6.485-12.648-0.39-12.649-11.392c-0.001-7.397,13.509-9.018,13.509-9.018
	s-1.536-6.396-1.015-10.264c0.357-2.653,16.913-3.09,19.706-1.982c1.782,4.383,4.136,7.335,4.082,9.108
	c5.272,3.555,5.459,1.419,12.163,5.937C235.417,483.104,238.367,489.74,223.04,491.417z M271.413,571.729
	c-6.462,1.188-16.039,1.759-26.167,3.567c-10.473,1.358-9.142-2.437-10.14-6.984c-2.2-10.028,6.929-11.529,14.743-12.445
	c5.139-0.602,10.175-0.785,15.337-1.392c5.23-0.614,13.693-1.613,14.324,8.079C281.428,571.729,275.984,570.888,271.413,571.729z
	 M293.326,453.638l24.089,32.726l-34.046,9.314L293.326,453.638z M335.121,566.285c-14.199,0-25.71-11.511-25.71-25.71
	s11.511-25.71,25.71-25.71s25.71,11.511,25.71,25.71S349.32,566.285,335.121,566.285z"/>
<path fill="#00AEEF" d="M293.582,460.321c-2.935,11.8-2.522,19.326-4.982,29.219c9.198-2.105,13.705-3.14,21.969-5.031
	C304.688,476.137,300.029,469.503,293.582,460.321z"/>
<g>
	<path fill-rule="evenodd" clip-rule="evenodd" fill="#2BB673" d="M336.121,422.019c5.069,4.764,7.61,7.151,12.272,11.533
		c-0.744-6.118-1.143-9.393-2.062-16.936c5.217,8.353,8.551,12.869,11.045,17.809c29.936,59.308,98.948,79.16,156.173,52.801
		c7.395-3.407,11.454-1.843,14.606,5.112c3.826,8.442,0.168,14.037-7.245,17.087c-28.106,11.568-56.683,16.578-87.171,9.026
		c-39.923-9.889-69.217-33.943-91.822-66.7C337.248,444.983,338.302,434.265,336.121,422.019z"/>
	<path fill-rule="evenodd" clip-rule="evenodd" fill="#2BB673" d="M145.086,552.861c-20.112-0.801-36.022-7.969-46.575-25.236
		c-19.552-31.991-13.14-74.978,15.569-101.01c11.675-10.588,22.37-23.901,46.296-20.418c-6.827,4.033-10.73,6.338-14.631,8.643
		c0.498,0.776,0.997,1.551,1.494,2.326c2.82,0,5.641,0,8.461,0c0.598,0.563,1.195,1.125,1.792,1.686
		c-3.727,1.61-7.454,3.218-11.182,4.828c0.945,1.33,1.891,2.662,2.836,3.992c2.242,0.573,4.484,1.144,8.218,2.098
		c-7.139,4.958-14.242,8.308-19.173,13.658c-9.134,9.913-19.524,19.876-24.842,31.838c-9.733,21.896-1.932,41.62,19.584,52.516
		C143.624,533.195,148.209,539.364,145.086,552.861z"/>
	<path fill-rule="evenodd" clip-rule="evenodd" fill="#2BB673" d="M451.306,720.482c0-24.685-0.268-47.704,0.118-70.713
		c0.183-10.81,1.947-21.583,2.413-32.397c0.564-13.142,6.677-18.953,17.846-16.777c-1.353,32.387-2.904,64.632-3.898,96.894
		c-0.245,7.962,0.922,16.044,2.144,23.961c1.864,12.087-3.566,17.885-15.112,18.684c-5.648,0.391-11.561,1.031-16.951-0.2
		c-3.911-0.893-7.163-4.675-10.708-7.167c2.953-3.207,5.337-7.682,8.992-9.309C441.099,721.251,447.021,721.229,451.306,720.482z"/>
	<path fill-rule="evenodd" clip-rule="evenodd" fill="#2BB673" d="M316.341,620.475c0,12.996-0.356,26.177,0.082,39.33
		c0.707,21.295,1.661,42.594,3.067,63.853c0.652,9.864-3.228,14.011-12.909,13.85c-7.562-0.125-15.185,0.922-22.677,0.26
		c-2.993-0.264-5.705-3.715-8.544-5.717c2.396-2.98,4.204-7.243,7.313-8.668c6.118-2.804,17.418-2.609,18.568-6.211
		c2.366-7.408-0.833-16.485-1.213-24.9c-0.894-19.801-2.136-39.623-1.958-59.425C298.19,619.345,300.126,618.646,316.341,620.475z"
		/>
	<path fill-rule="evenodd" clip-rule="evenodd" fill="#2BB673" d="M626.481,540.333c-1.256-33.577-3.188-67.167-6.153-100.635
		c-4.886-55.125-9.991-110.259-16.576-165.2c-6.241-52.066-13.921-103.982-22.132-155.779c-3.812-24.049-13.675-31.79-37.928-34.512
		c-34.308-3.849-68.595-7.977-102.979-10.994c-22.839-2.003-45.832-2.269-66.072-3.19c4.38,20.014,9.733,38.93,12.509,58.22
		c7.808,54.268,15.093,108.623,21.576,163.064c7.047,59.176,13.609,118.43,18.897,177.784c1.272,14.271,7.318,17.778,19.482,19.755
		c22.368,3.632,29.54,1.376,41.787-16.608c10.851-15.934,32.104-21.646,49.11-13.196c15.741,7.82,23.937,28.837,18.646,47.813
		c-4.629,16.599-21.809,26.235-39.607,25.46c-26.961-1.174-54.011-0.306-82.498-0.306c0,17.734,0,37.658,0,58.88
		c51.791-4.247,105.084-8.473,158.349-13.049C618.512,575.641,627.45,566.217,626.481,540.333z M536.741,223.91
		c-0.038,2.876-3.027,8.543-6.865,8.543c-2.882,0-7.144-5.194-7.222-8.563c-0.067-2.91-0.001-10.64,5.807-10.592
		C534.23,212.536,536.777,221.047,536.741,223.91z M521.412,128.41c5.77-0.761,8.316,7.75,8.28,10.613
		c-0.038,2.876-3.027,8.543-6.865,8.543c-2.882,0-7.144-5.194-7.222-8.563C515.538,136.092,515.604,128.362,521.412,128.41z
		 M501.602,174.875c5.77-0.761,8.316,7.75,8.28,10.613c-0.038,2.876-3.027,8.543-6.865,8.543c-2.882,0-7.144-5.194-7.222-8.563
		C495.728,182.557,495.794,174.827,501.602,174.875z M492.829,223.91c-0.038,2.876-3.027,8.543-6.865,8.543
		c-2.882,0-7.144-5.194-7.222-8.563c-0.067-2.91-0.001-10.64,5.807-10.592C490.318,212.536,492.865,221.047,492.829,223.91z
		 M477.5,128.41c5.77-0.761,8.316,7.75,8.28,10.613c-0.038,2.876-3.027,8.543-6.865,8.543c-2.882,0-7.144-5.194-7.222-8.563
		C471.626,136.092,471.692,128.362,477.5,128.41z M454.466,185.467c-0.067-2.91-0.001-10.64,5.807-10.592
		c5.77-0.761,8.316,7.75,8.28,10.613c-0.038,2.876-3.027,8.543-6.865,8.543C458.806,194.03,454.544,188.836,454.466,185.467z
		 M549.854,194.03c-2.882,0-7.144-5.195-7.222-8.564c-0.067-2.91-0.001-10.64,5.807-10.592c5.77-0.761,8.316,7.75,8.28,10.613
		C556.681,188.363,553.691,194.03,549.854,194.03z"/>
</g>
</svg>
