<svg xmlns="http://www.w3.org/2000/svg" x="0px" y="0px"
width="64" height="64"
viewBox="0 0 192 192"
style=" fill:#000000;"><g fill="none" fill-rule="nonzero" stroke="none" stroke-width="1" stroke-linecap="butt" stroke-linejoin="miter" stroke-miterlimit="10" stroke-dasharray="" stroke-dashoffset="0" font-family="none" font-weight="none" font-size="none" text-anchor="none" style="mix-blend-mode: normal"><path d="M0,192v-192h192v192z" fill="none"></path><g id="Layer_1"><path d="M44.631,189c-2.16,0 -4.095,-1.11 -5.181,-2.97c-1.089,-1.866 -1.101,-4.107 -0.033,-5.994c2.547,-4.503 5.583,-12.012 5.583,-22.215v-103.305c0,-12.084 3.378,-51.516 46.839,-51.516c35.724,0 47.28,24.699 47.28,36.663c0,10.908 -4.473,20.136 -13.299,27.429c-1.032,0.852 -1.11,1.935 -1.062,2.502c0.081,1.014 0.645,1.902 1.545,2.427c15.723,9.216 23.697,22.029 23.697,38.076c0,3.858 -0.777,17.385 -10.788,29.484c-6.837,8.262 -20.202,18.111 -45.054,18.111c-9.609,0 -16.563,-3.237 -20.709,-5.952l0.048,6.081c0,12.315 -2.322,19.956 -4.269,24.195c-1.944,4.245 -6.225,6.984 -10.905,6.984zM95.175,16.737c-0.456,0 -0.912,0.024 -1.359,0.069c-4.413,0.459 -18.816,3.969 -18.816,29.886v77.472c0,5.721 2.085,11.055 5.724,14.622c3.483,3.423 7.665,5.082 12.783,5.082c8.703,0 28.026,-8.925 28.749,-35.436c0,-17.853 -5.925,-24.006 -11.991,-28.77c-1.515,-1.188 -3.324,-1.845 -5.088,-1.845c-0.3,0 -0.6,0.021 -0.9,0.06c-1.347,0.174 -2.715,0.261 -4.065,0.261c-8.508,0 -14.454,-3.273 -14.454,-7.959c0,-4.704 6.567,-7.167 13.056,-7.167c0.795,0 1.611,0.036 2.445,0.111c0.243,0.024 0.483,0.036 0.723,0.036c3.348,0 6.564,-2.205 8.001,-5.49c2.238,-5.103 3.192,-10.257 3.192,-17.232c0.003,-15.393 -9.273,-23.7 -18,-23.7z" fill="#f1c40f"></path><g fill="#f9f153"><path d="M57,157.821v-103.305c0,-11.526 3.102,-47.901 41.091,-51.243c-1.998,-0.174 -4.077,-0.273 -6.252,-0.273c-43.461,0 -46.839,39.432 -46.839,51.516v103.308c0,10.2 -3.036,17.709 -5.583,22.212c-1.065,1.887 -1.056,4.128 0.033,5.994c1.086,1.86 3.021,2.97 5.181,2.97c0,0 12.369,-6 12.369,-31.179z"></path></g><g fill="#9f956c"><path d="M112.119,77.307c-1.998,-1.569 -4.443,-2.487 -6.933,-2.487c-0.429,0 -0.858,0.027 -1.287,0.081c-1.254,0.162 -2.487,0.237 -3.681,0.237c-6.327,0 -11.457,-2.136 -11.457,-4.962c0,-2.088 4.392,-4.167 10.059,-4.167c0.705,0 1.428,0.033 2.166,0.099c0.336,0.03 0.669,0.045 0.999,0.045c4.596,0 8.838,-2.922 10.749,-7.287c2.229,-5.088 3.444,-10.5 3.444,-18.435c0,-17.691 -11.046,-26.7 -21.003,-26.7c-0.561,0 -1.119,0.03 -1.668,0.087c-5.274,0.552 -21.507,4.716 -21.507,32.874v77.475c0,6.261 2.22,12.441 6.624,16.764c3.813,3.744 8.613,5.94 14.883,5.94c10.584,0 30.978,-10.179 31.749,-38.355c0,-18.84 -6.258,-25.806 -13.137,-31.209zM93.507,140.871c-4.353,0 -7.746,-1.341 -10.68,-4.224c-3.069,-3.009 -4.827,-7.56 -4.827,-12.48v-77.475c0,-22.773 11.277,-26.4 16.125,-26.904c0.345,-0.036 0.699,-0.054 1.05,-0.054c7.272,0 15.003,7.254 15.003,20.7c0,6.534 -0.879,11.328 -2.937,16.026c-0.969,2.211 -3.081,3.696 -5.256,3.696c-0.147,0 -0.297,-0.006 -0.447,-0.021c-0.903,-0.084 -1.818,-0.126 -2.718,-0.126c-3.474,0 -6.861,0.636 -9.534,1.794c-5.889,2.544 -6.522,6.705 -6.522,8.373c0,6.555 7.017,10.962 17.457,10.962c1.476,0 2.976,-0.096 4.449,-0.288c0.174,-0.021 0.345,-0.033 0.519,-0.033c1.092,0 2.238,0.429 3.228,1.206c5.703,4.479 10.824,9.873 10.842,26.409c-0.702,24.27 -17.97,32.439 -25.752,32.439z"></path><path d="M127.821,69.432c9.459,-7.917 14.298,-17.922 14.298,-29.769c0,-12.942 -12.291,-39.663 -50.28,-39.663c-36.747,0 -49.839,28.161 -49.839,54.516v103.308c0,9.549 -2.823,16.548 -5.193,20.736c-1.575,2.784 -1.554,6.228 0.054,8.985c1.629,2.79 4.533,4.455 7.77,4.455h13.692c5.847,0 11.199,-3.426 13.635,-8.73c3.015,-6.564 4.542,-15.126 4.542,-25.449v-0.957c4.416,2.07 10.329,3.828 17.661,3.828c26.019,0 40.119,-10.44 47.364,-19.2c10.647,-12.87 11.475,-27.282 11.475,-31.395c0,-16.947 -8.706,-31.011 -25.179,-40.665zM94.161,154.692c-7.887,0 -14.337,-2.364 -19.065,-5.46c-0.51,-0.336 -1.062,-0.486 -1.602,-0.486c-1.551,0 -2.994,1.254 -2.994,3.012v6.063c0,11.514 -2.049,18.708 -3.996,22.944c-1.467,3.201 -4.659,5.235 -8.181,5.235h-13.692c-2.31,0 -3.738,-2.478 -2.601,-4.488c2.613,-4.62 5.97,-12.696 5.97,-23.691c0,0 0,-92.337 0,-103.308c0,-10.932 2.655,-48.513 43.839,-48.513c33.399,0 44.28,22.692 44.28,33.663c0,9.813 -3.825,18.186 -12.21,25.116c-3.24,2.676 -2.748,7.704 0.876,9.828c14.499,8.499 22.215,20.319 22.215,35.49c0,14.064 -9.315,44.595 -52.839,44.595z"></path><path d="M168.951,83.544c-0.603,-1.548 -2.337,-2.313 -3.885,-1.704l-4.917,1.92c-1.542,0.603 -2.307,2.343 -1.704,3.885c0.462,1.188 1.596,1.911 2.796,1.911c0.363,0 0.732,-0.063 1.089,-0.204l4.917,-1.92c1.542,-0.609 2.307,-2.349 1.704,-3.888z"></path><path d="M165.798,103.974l5.262,-0.714c1.641,-0.222 2.793,-1.734 2.568,-3.378c-0.222,-1.641 -1.74,-2.787 -3.375,-2.568l-5.262,0.714c-1.641,0.222 -2.793,1.734 -2.568,3.378c0.204,1.503 1.491,2.595 2.967,2.595c0.132,0 0.27,-0.009 0.408,-0.027z"></path><path d="M172.452,113.358l-5.376,-0.519c-1.674,-0.135 -3.117,1.05 -3.276,2.697c-0.159,1.65 1.05,3.114 2.697,3.273l5.376,0.519c0.099,0.009 0.195,0.015 0.291,0.015c1.527,0 2.832,-1.161 2.985,-2.712c0.162,-1.65 -1.047,-3.114 -2.697,-3.273z"></path><path d="M161.325,68.355c-0.948,-1.356 -2.814,-1.686 -4.179,-0.744l-4.356,3.039c-1.359,0.948 -1.692,2.817 -0.744,4.179c0.585,0.834 1.515,1.284 2.463,1.284c0.591,0 1.191,-0.177 1.713,-0.54l4.356,-3.039c1.359,-0.951 1.695,-2.82 0.747,-4.179z"></path><path d="M57,71.304c-1.656,0 -3,1.341 -3,3v54.603c0,1.659 1.344,3 3,3c1.656,0 3,-1.341 3,-3v-54.603c0,-1.659 -1.344,-3 -3,-3z"></path><path d="M57,48c-1.656,0 -3,1.341 -3,3v11.814c0,1.659 1.344,3 3,3c1.656,0 3,-1.341 3,-3v-11.814c0,-1.659 -1.344,-3 -3,-3z"></path></g></g></g></svg>
