<svg xmlns="http://www.w3.org/2000/svg" xmlns:xlink="http://www.w3.org/1999/xlink" version="1.1" width="24.738561630249023" height="24.352941513061523" style=""><rect id="backgroundrect" width="100%" height="100%" x="0" y="0" fill="none" stroke="none" class="" style=""/><title>design_051-pixel-grid-show-rasterize</title><desc>Created with Sketch.</desc><g class="currentLayer" style=""><title>Layer 1</title><g stroke="none" stroke-width="1" fill="#242424" fill-rule="evenodd" id="svg_1" class="" fill-opacity="1"><g fill="#242424" id="svg_2" fill-opacity="1"><g id="svg_3" fill="#242424" fill-opacity="1"><path d="M3.0486023912599194,21.782848538346116 L22.04428643125992,21.781462938346124 L22.042900831259917,2.7857789783461158 L3.04721687125992,2.787164498346101 L3.0486023912599194,21.782848538346116 zM3.044497722259919,1.7843137383460999 L22.04700553125992,1.7843137383460999 C22.598597731259918,1.7843137383460999 23.045751631259918,2.2229285833461176 23.045751631259918,2.7830598293460866 L23.045751631259918,21.785567638346095 C23.045751631259918,22.33715983834611 22.60713683125992,22.7843137383461 22.04700553125992,22.7843137383461 L3.044497722259919,22.7843137383461 C2.492905487259918,22.7843137383461 2.045751631259918,22.345698938346118 2.045751631259918,21.785567638346095 L2.045751631259918,2.7830598293460866 C2.045751631259918,2.2314675943460998 2.4843664762599222,1.7843137383460999 3.044497722259919,1.7843137383460999 z" id="svg_4" fill="#242424" fill-opacity="1"/><rect x="6.045751571655273" y="1.784313678741455" width="1" height="17" id="svg_5" fill="#242424" fill-opacity="1"/><rect x="10.045751571655273" y="1.784313678741455" width="1" height="13" id="svg_6" fill="#242424" fill-opacity="1"/><rect x="14.045751571655273" y="1.784313678741455" width="1" height="9" id="svg_7" fill="#242424" fill-opacity="1"/><rect x="18.045751571655273" y="1.784313678741455" width="1" height="5" id="svg_8" fill="#242424" fill-opacity="1"/><rect x="2.0457515716552734" y="9.784314155578613" width="13" height="1" id="svg_9" fill="#242424" fill-opacity="1"/><rect x="2.0457515716552734" y="5.784313678741455" width="17" height="1" id="svg_10" fill="#242424" fill-opacity="1"/><rect x="2.0457515716552734" y="13.784314155578613" width="9" height="1" id="svg_11" fill="#242424" fill-opacity="1"/><rect x="2.0457515716552734" y="17.784313201904297" width="5" height="1" id="svg_12" fill="#242424" fill-opacity="1"/><g id="svg_13" fill="#242424" fill-opacity="1"><circle cx="4.545751571655273" cy="20.284313201904297" r="0.5" id="svg_14" fill="#242424" fill-opacity="1"/><circle cx="8.545751571655273" cy="20.284313201904297" r="0.5" id="svg_15" fill="#242424" fill-opacity="1"/><circle cx="8.545751571655273" cy="16.284313201904297" r="0.5" id="svg_16" fill="#242424" fill-opacity="1"/><circle cx="12.545751571655273" cy="16.284313201904297" r="0.5" id="svg_17" fill="#242424" fill-opacity="1"/><circle cx="12.545751571655273" cy="20.284313201904297" r="0.5" id="svg_18" fill="#242424" fill-opacity="1"/><circle cx="16.545751571655273" cy="20.284313201904297" r="0.5" id="svg_19" fill="#242424" fill-opacity="1"/><circle cx="20.545751571655273" cy="20.284313201904297" r="0.5" id="svg_20" fill="#242424" fill-opacity="1"/><circle cx="20.545751571655273" cy="16.284313201904297" r="0.5" id="svg_21" fill="#242424" fill-opacity="1"/><circle cx="16.545751571655273" cy="16.284313201904297" r="0.5" id="svg_22" fill="#242424" fill-opacity="1"/><circle cx="20.545751571655273" cy="12.284314155578613" r="0.5" id="svg_23" fill="#242424" fill-opacity="1"/><circle cx="16.545751571655273" cy="12.284314155578613" r="0.5" id="svg_24" fill="#242424" fill-opacity="1"/><circle cx="12.545751571655273" cy="12.284314155578613" r="0.5" id="svg_25" fill="#242424" fill-opacity="1"/><circle cx="16.545751571655273" cy="8.284314155578613" r="0.5" id="svg_26" fill="#242424" fill-opacity="1"/><circle cx="20.545751571655273" cy="8.284314155578613" r="0.5" id="svg_27" fill="#242424" fill-opacity="1"/><circle cx="18.545751571655273" cy="10.284314155578613" r="0.5" id="svg_28" fill="#242424" fill-opacity="1"/><circle cx="18.545751571655273" cy="14.284314155578613" r="0.5" id="svg_29" fill="#242424" fill-opacity="1"/><circle cx="14.545751571655273" cy="14.284314155578613" r="0.5" id="svg_30" fill="#242424" fill-opacity="1"/><circle cx="14.545751571655273" cy="18.284313201904297" r="0.5" id="svg_31" fill="#242424" fill-opacity="1"/><circle cx="10.545751571655273" cy="18.284313201904297" r="0.5" id="svg_32" fill="#242424" fill-opacity="1"/><circle cx="18.545751571655273" cy="18.284313201904297" r="0.5" id="svg_33" fill="#242424" fill-opacity="1"/><circle cx="20.545751571655273" cy="4.284313678741455" r="0.5" id="svg_34" fill="#242424" fill-opacity="1"/></g></g></g></g></g></svg>