<svg xmlns="http://www.w3.org/2000/svg" x="0px" y="0px"
width="100" height="100"
viewBox="0 0 192 192"
style=" fill:#000000;"><g fill="none" fill-rule="nonzero" stroke="none" stroke-width="1" stroke-linecap="butt" stroke-linejoin="miter" stroke-miterlimit="10" stroke-dasharray="" stroke-dashoffset="0" font-family="none" font-weight="none" font-size="none" text-anchor="none" style="mix-blend-mode: normal"><path d="M0,192v-192h192v192z" fill="none"></path><g id="Layer_1"><path d="M144,144v-97.92c0,-8.48256 -6.87744,-15.36 -15.36,-15.36h-71.04c-5.30112,0 -9.6,4.29888 -9.6,9.6v105.6h94.08c1.05984,0 1.92,-0.86016 1.92,-1.92z" fill="#1abc9c"></path><path d="M78.72,145.92v-115.2h-21.12c-5.2992,0 -9.6,4.3008 -9.6,9.6v105.6z" fill="#417268"></path><path d="M138.24,152.64c0,3.76128 2.40384,7.45344 5.76,8.64h-87.36c-4.7712,0 -8.64,-3.8688 -8.64,-8.64c0,-4.7712 3.8688,-8.64 8.64,-8.64h87.36c-3.35616,1.18656 -5.76,4.87872 -5.76,8.64z" fill="#fefdef"></path><g fill="#fcf67f"><path d="M93.12,25.92v59.52l-15.36,-7.68l-15.36,7.68v-59.52z"></path></g><g fill="#1f212b"><path d="M144,163.2h-87.36c-5.82336,0 -10.56,-4.73856 -10.56,-10.56c0,-5.82144 4.73664,-10.56 10.56,-10.56h87.36c0.93504,0 1.73376,0.67392 1.8912,1.59552c0.15936,0.91968 -0.37056,1.82208 -1.25184,2.13312c-2.5536,0.90432 -4.47936,3.84 -4.47936,6.83136c0,2.99136 1.92576,5.92704 4.47936,6.83136c0.88128,0.31104 1.40928,1.21344 1.25184,2.13312c-0.15744,0.9216 -0.95616,1.59552 -1.8912,1.59552zM56.64,145.92c-3.7056,0 -6.72,3.0144 -6.72,6.72c0,3.7056 3.0144,6.72 6.72,6.72h81.88416c-1.37856,-1.9104 -2.20416,-4.28544 -2.20416,-6.72c0,-2.43456 0.8256,-4.8096 2.20416,-6.72z"></path></g><g fill="#1f212b"><path d="M137.28,151.68h-76.8c-0.52992,0 -0.96,-0.43008 -0.96,-0.96c0,-0.52992 0.43008,-0.96 0.96,-0.96h76.8c0.52992,0 0.96,0.43008 0.96,0.96c0,0.52992 -0.43008,0.96 -0.96,0.96z"></path></g><g fill="#1f212b"><path d="M137.28,155.52h-59.52c-0.52992,0 -0.96,-0.43008 -0.96,-0.96c0,-0.52992 0.43008,-0.96 0.96,-0.96h59.52c0.52992,0 0.96,0.43008 0.96,0.96c0,0.52992 -0.43008,0.96 -0.96,0.96z"></path></g><g fill="#1f212b"><path d="M49.92,152.64h-3.84v-112.32c0,-6.35328 5.16672,-11.52 11.52,-11.52h4.8v3.84h-4.8c-4.23552,0 -7.68,3.44448 -7.68,7.68z"></path></g><g fill="#1f212b"><path d="M145.92,144h-3.84v-97.92c0,-7.40928 -6.0288,-13.44 -13.44,-13.44h-35.52v-3.84h35.52c9.52704,0 17.28,7.75104 17.28,17.28z"></path></g><g fill="#1f212b"><path d="M77.76,115.2c-0.52992,0 -0.96,-0.43008 -0.96,-0.96v-36.48c0,-0.52992 0.43008,-0.96 0.96,-0.96c0.52992,0 0.96,0.43008 0.96,0.96v36.48c0,0.52992 -0.43008,0.96 -0.96,0.96z"></path></g><g fill="#1f212b"><path d="M77.76,124.8c-0.52992,0 -0.96,-0.43008 -0.96,-0.96v-3.84c0,-0.52992 0.43008,-0.96 0.96,-0.96c0.52992,0 0.96,0.43008 0.96,0.96v3.84c0,0.52992 -0.43008,0.96 -0.96,0.96z"></path></g><g fill="#1f212b"><path d="M77.76,130.56c-0.52992,0 -0.96,-0.43008 -0.96,-0.96v-1.92c0,-0.52992 0.43008,-0.96 0.96,-0.96c0.52992,0 0.96,0.43008 0.96,0.96v1.92c0,0.52992 -0.43008,0.96 -0.96,0.96z"></path></g><g fill="#1f212b"><g><path d="M93.12,86.4c-0.14784,0 -0.29376,-0.03456 -0.43008,-0.10176l-14.92992,-7.46496l-14.92992,7.46688c-0.29952,0.14592 -0.65088,0.12864 -0.93312,-0.04032c-0.28416,-0.17856 -0.45696,-0.48768 -0.45696,-0.81984v-59.52c0,-0.52992 0.43008,-0.96 0.96,-0.96h30.72c0.52992,0 0.96,0.43008 0.96,0.96v59.52c0,0.33216 -0.1728,0.64128 -0.45504,0.81792c-0.1536,0.09408 -0.33024,0.14208 -0.50496,0.14208zM77.76,76.8c0.14784,0 0.29376,0.03456 0.43008,0.10176l13.96992,6.98496v-57.00672h-28.8v57.00672l13.96992,-6.98688c0.13632,-0.06528 0.28224,-0.09984 0.43008,-0.09984z"></path></g></g></g></g></svg>
