<svg xmlns="http://www.w3.org/2000/svg" x="0px" y="0px"
width="100" height="100"
viewBox="0 0 100 100"
style="enable-background:new 0 0 100 100;; fill:#000000;"><path style="fill:#A3A3CD;" d="M75,75V24c0-4.418-3.582-8-8-8H30c-2.761,0-5,2.239-5,5v55h49C74.552,76,75,75.552,75,75z"></path><path style="fill:#666AAD;" d="M41,76V16H30c-2.76,0-5,2.24-5,5v55H41z"></path><path style="fill:#FEFDEF;" d="M72,79.5c0,1.959,1.252,3.882,3,4.5H29.5c-2.485,0-4.5-2.015-4.5-4.5s2.015-4.5,4.5-4.5H75	C73.252,75.618,72,77.541,72,79.5z"></path><g>	<polygon style="fill:#FCBA7F;" points="48.5,13.5 48.5,44.5 40.5,40.5 32.5,44.5 32.5,13.5 	"></polygon></g><g>	<path style="fill:#1F212B;" d="M75,85H29.5c-3.033,0-5.5-2.468-5.5-5.5s2.467-5.5,5.5-5.5H75c0.487,0,0.903,0.351,0.985,0.831		c0.083,0.479-0.193,0.949-0.652,1.111c-1.33,0.471-2.333,2-2.333,3.558s1.003,3.087,2.333,3.558		c0.459,0.162,0.734,0.632,0.652,1.111C75.903,84.649,75.487,85,75,85z M29.5,76c-1.93,0-3.5,1.57-3.5,3.5s1.57,3.5,3.5,3.5h42.648		C71.43,82.005,71,80.768,71,79.5s0.43-2.505,1.148-3.5H29.5z"></path></g><g>	<path style="fill:#1F212B;" d="M71.5,79h-40c-0.276,0-0.5-0.224-0.5-0.5s0.224-0.5,0.5-0.5h40c0.276,0,0.5,0.224,0.5,0.5		S71.776,79,71.5,79z"></path></g><g>	<path style="fill:#1F212B;" d="M71.5,81h-31c-0.276,0-0.5-0.224-0.5-0.5s0.224-0.5,0.5-0.5h31c0.276,0,0.5,0.224,0.5,0.5		S71.776,81,71.5,81z"></path></g><g>	<path style="fill:#1F212B;" d="M26,79.5h-2V21c0-3.309,2.691-6,6-6h2.5v2H30c-2.206,0-4,1.794-4,4V79.5z"></path></g><g>	<path style="fill:#1F212B;" d="M76,75h-2V24c0-3.859-3.14-7-7-7H48.5v-2H67c4.962,0,9,4.037,9,9V75z"></path></g><g>	<path style="fill:#1F212B;" d="M40.5,60c-0.276,0-0.5-0.224-0.5-0.5v-19c0-0.276,0.224-0.5,0.5-0.5s0.5,0.224,0.5,0.5v19		C41,59.776,40.776,60,40.5,60z"></path></g><g>	<path style="fill:#1F212B;" d="M40.5,65c-0.276,0-0.5-0.224-0.5-0.5v-2c0-0.276,0.224-0.5,0.5-0.5s0.5,0.224,0.5,0.5v2		C41,64.776,40.776,65,40.5,65z"></path></g><g>	<path style="fill:#1F212B;" d="M40.5,68c-0.276,0-0.5-0.224-0.5-0.5v-1c0-0.276,0.224-0.5,0.5-0.5s0.5,0.224,0.5,0.5v1		C41,67.776,40.776,68,40.5,68z"></path></g><g>	<g>		<path style="fill:#1F212B;" d="M48.5,45c-0.077,0-0.153-0.018-0.224-0.053L40.5,41.059l-7.776,3.889			c-0.156,0.076-0.339,0.067-0.486-0.021C32.09,44.834,32,44.673,32,44.5v-31c0-0.276,0.224-0.5,0.5-0.5h16			c0.276,0,0.5,0.224,0.5,0.5v31c0,0.173-0.09,0.334-0.237,0.426C48.683,44.975,48.591,45,48.5,45z M40.5,40			c0.077,0,0.153,0.018,0.224,0.053L48,43.691V14H33v29.691l7.276-3.639C40.347,40.018,40.423,40,40.5,40z"></path>	</g></g></svg>
