<svg xmlns="http://www.w3.org/2000/svg" x="0px" y="0px"
width="40" height="40"
viewBox="0 0 192 192"
style=" fill:#000000;"><g fill="none" fill-rule="nonzero" stroke="none" stroke-width="1" stroke-linecap="butt" stroke-linejoin="miter" stroke-miterlimit="10" stroke-dasharray="" stroke-dashoffset="0" font-family="none" font-weight="none" font-size="none" text-anchor="none" style="mix-blend-mode: normal"><path d="M0,192v-192h192v192z" fill="none"></path><g><g id="surface1"><path d="M71.6625,156c-2.2875,0 -4.44375,-0.9 -6.075,-2.5125l-55.875,-55.875c-3.3375,-3.35625 -3.3375,-8.79375 0,-12.15l75.43125,-75.225c1.96875,-1.95 4.575,-3.0375 7.35,-3.0375h51.50625c6.61875,0 12,5.38125 12,12v51.69375c0,2.86875 -1.1625,5.68125 -3.20625,7.725l-75.05625,74.86875c-1.63125,1.6125 -3.7875,2.5125 -6.075,2.5125zM134.4,21.6c-3.975,0 -7.2,3.225 -7.2,7.2c0,3.975 3.225,7.2 7.2,7.2c3.975,0 7.2,-3.225 7.2,-7.2c0,-3.975 -3.225,-7.2 -7.2,-7.2z" fill="#b6dcfe"></path><path d="M144,9.6c5.2875,0 9.6,4.3125 9.6,9.6v51.69375c0,2.26875 -0.88125,4.40625 -2.49375,6.01875l-75.075,74.86875c-1.1625,1.18125 -2.71875,1.81875 -4.36875,1.81875c-1.65,0 -3.20625,-0.6375 -4.36875,-1.81875l-55.875,-55.85625c-2.41875,-2.41875 -2.41875,-6.3375 0,-8.75625l75.43125,-75.225c1.5,-1.51875 3.50625,-2.34375 5.64375,-2.34375h51.50625M134.4,38.4c5.2875,0 9.6,-4.3125 9.6,-9.6c0,-5.2875 -4.3125,-9.6 -9.6,-9.6c-5.2875,0 -9.6,4.3125 -9.6,9.6c0,5.2875 4.3125,9.6 9.6,9.6M144,4.8h-51.50625c-3.39375,0 -6.6375,1.35 -9.0375,3.73125l-75.43125,75.24375c-4.29375,4.29375 -4.29375,11.25 0,15.54375l55.875,55.85625c2.1375,2.15625 4.95,3.225 7.7625,3.225c2.8125,0 5.625,-1.06875 7.7625,-3.225l75.075,-74.86875c2.49375,-2.49375 3.9,-5.86875 3.9,-9.4125v-51.69375c0,-7.95 -6.45,-14.4 -14.4,-14.4zM134.4,33.6c-2.64375,0 -4.8,-2.15625 -4.8,-4.8c0,-2.64375 2.15625,-4.8 4.8,-4.8c2.64375,0 4.8,2.15625 4.8,4.8c0,2.64375 -2.15625,4.8 -4.8,4.8z" fill="#4788c7"></path><path d="M100.4625,184.8c-2.2875,0 -4.44375,-0.9 -6.075,-2.5125l-55.875,-55.875c-3.3375,-3.35625 -3.3375,-8.79375 0,-12.15l75.43125,-75.225c1.96875,-1.95 4.575,-3.0375 7.35,-3.0375h51.50625c6.61875,0 12,5.38125 12,12v51.69375c0,2.86875 -1.1625,5.68125 -3.20625,7.725l-75.05625,74.86875c-1.63125,1.6125 -3.7875,2.5125 -6.075,2.5125zM163.2,50.4c-3.975,0 -7.2,3.225 -7.2,7.2c0,3.975 3.225,7.2 7.2,7.2c3.975,0 7.2,-3.225 7.2,-7.2c0,-3.975 -3.225,-7.2 -7.2,-7.2z" fill="#dff0fe"></path><path d="M172.8,38.4c5.2875,0 9.6,4.3125 9.6,9.6v51.69375c0,2.26875 -0.88125,4.40625 -2.49375,6.01875l-75.075,74.86875c-1.1625,1.18125 -2.71875,1.81875 -4.36875,1.81875c-1.65,0 -3.20625,-0.6375 -4.36875,-1.81875l-55.875,-55.85625c-2.41875,-2.41875 -2.41875,-6.3375 0,-8.75625l75.43125,-75.225c1.5,-1.51875 3.50625,-2.34375 5.64375,-2.34375h51.50625M163.2,67.2c5.2875,0 9.6,-4.3125 9.6,-9.6c0,-5.2875 -4.3125,-9.6 -9.6,-9.6c-5.2875,0 -9.6,4.3125 -9.6,9.6c0,5.2875 4.3125,9.6 9.6,9.6M172.8,33.6h-51.50625c-3.39375,0 -6.6375,1.35 -9.0375,3.73125l-75.43125,75.24375c-4.29375,4.29375 -4.29375,11.25 0,15.54375l55.875,55.85625c2.1375,2.15625 4.95,3.225 7.7625,3.225c2.8125,0 5.625,-1.06875 7.7625,-3.225l75.075,-74.86875c2.49375,-2.49375 3.9,-5.86875 3.9,-9.4125v-51.69375c0,-7.95 -6.45,-14.4 -14.4,-14.4zM163.2,62.4c-2.64375,0 -4.8,-2.15625 -4.8,-4.8c0,-2.64375 2.15625,-4.8 4.8,-4.8c2.64375,0 4.8,2.15625 4.8,4.8c0,2.64375 -2.15625,4.8 -4.8,4.8z" fill="#4788c7"></path></g></g></g></svg>
