<svg xmlns:x="http://ns.adobe.com/Extensibility/1.0/" xmlns:i="http://ns.adobe.com/AdobeIllustrator/10.0/" xmlns:graph="http://ns.adobe.com/Graphs/1.0/" xmlns="http://www.w3.org/2000/svg" xmlns:xlink="http://www.w3.org/1999/xlink" xmlns:a="http://ns.adobe.com/AdobeSVGViewerExtensions/3.0/" version="1.1" width="623.2222213391908" height="743.6666656070283" enable-background="new 0 0 864 864" xml:space="preserve"><rect id="backgroundrect" width="100%" height="100%" x="0" y="0" fill="none" stroke="none" class="" style=""/>







<g class="currentLayer" style=""><title>Layer 1</title><path fill-rule="evenodd" clip-rule="evenodd" d="M398.5285572509766,679.4306688919067 c-1.557,-19.43 -3.957,-37.291 -4.145,-55.178 c-0.18700000000000006,-17.795 1.8490000000000002,-35.617 3.024,-55.348 c-11.438,1.102 -22.155,1.8050000000000002 -32.776,3.221 c-24.807,3.311 -49.538,7.199 -74.362,10.35 c-8.978,1.139 -12.371,5.805 -11.957,14.189 c1.377,27.877 1.742,55.859 4.503,83.602 c2.64,26.504 -1.4380000000000002,33.293 -27.825,36.105 c-6.115,0.6520000000000002 -12.34,0.984 -18.47,0.6480000000000002 c-11.091,-0.6050000000000002 -17.086,-7.449 -18.754,-17.879 c-1.772,-11.078 5.409,-15.066 14.729,-16.912 c4.563,-0.902 9.093,-1.9769999999999999 12.362,-2.6950000000000003 c-2.089,-30.186 -4.129,-59.668 -6.295,-90.953 c-19.924,2.434 -39.902,5.703 -60.008,7.055 c-14.945,1.006 -30.221,0.7560000000000002 -45.046,-1.215 c-13.074,-1.738 -21.58,-11.188 -25.977,-23.701 c-1.249,-3.555 -2.4,-7.352 -2.501,-11.068 c-0.503,-18.662 -8.701,-27.381 -27.842,-33.586 c-49.428,-16.025 -62.426,-89.363 -24.744,-129.642 c4.825,-5.157 9.96,-10.763 16.117,-13.792 c16.962,-8.344 16.775,-21.455 14.546,-37.578 c-8.886,-64.264 -17.081,-128.631 -24.714,-193.057 c-3.43,-28.956 10.234,-51.068 36.232,-61.35 c43.031,-17.018 87.74,-29.752 131.098,-46.005 c49.809,-18.672 100.938,-19.256 152.738,-15.09 c37.77,3.039 75.632,5.333 113.249,9.707 c39.365,4.574 51.369,15.895 56.951,54.888 c10.312,72.038 20.242,144.166 28.251,216.486 c7.076,63.899 11.727,128.082 16.63,192.203 c2.114,27.654 -7.251,54.756 -48.116,55.646 c-33.028,0.7190000000000002 -65.947,5.607 -98.97,7.84 c-11.551,0.781 -11.141,8.924 -11.497,15.926 c-1.444,28.352 -2.283,56.736 -3.106,85.113 c-0.3020000000000001,10.426 0.998,20.986 -0.271,31.262 c-0.6610000000000003,5.354 -4.67,14.014 -8.284,14.629 c-14.144,2.41 -28.881,3.582 -43.061,2.066 c-3.805,-0.406 -8.384,-11.811 -8.869,-18.439 c-0.3070000000000001,-4.191 5.49,-10.236 10.04,-12.996 C386.3505572509766,680.8836688919067 393.0185572509766,680.7286688919068 398.5285572509766,679.4306688919067 zM95.36155725097657,488.1686688919067 c-2.226,-21.144 -4.332,-41.171 -6.612,-62.839 C62.651557250976566,444.5186688919067 66.55655725097657,486.90666889190675 95.36155725097657,488.1686688919067 z" id="svg_1" class=""/><path fill-rule="evenodd" clip-rule="evenodd" fill="#BDDC94" d="M108.02855725097658,178.73166889190674 c0,-7.059 -0.026000000000000013,-14.118 0.007000000000000004,-21.178 c0.047000000000000014,-9.904 5.202,-15.61 14.509,-18.48 c43.373,-13.375 86.69200000000001,-26.925 130.042,-40.37 c2.6980000000000004,-0.8370000000000002 5.475,-1.5510000000000002 8.267,-1.9300000000000002 c21.007,-2.8520000000000003 27.38,1.996 30.317,23.161 c4.818,34.701 9.605,69.407 14.285,104.126 c1.262,9.372 2.6740000000000004,18.783 2.98,28.21 c0.6090000000000002,18.689 -5.5920000000000005,29.827 -23.594,33.779 c-47.589,10.447 -95.543,19.269 -143.456,28.174 c-12.583,2.338 -16.522,-7.467 -18.012,-17.251 L108.02855725097658,178.73166889190674 zM173.62355725097657,188.57766889190674 c10.258,15.226 22.318,19.948 37.281,15.531 c13.033,-3.848 21.902,-12.011 22.328,-28.295 C218.74855725097655,200.98966889190675 198.55755725097657,201.87566889190674 173.62355725097657,188.57766889190674 zM166.29855725097656,176.19766889190674 c-2.269,-5.221 -5.073,-8.531 -10.449,-7.781 c-3.624,0.25 -9.124,5.75 -7.078,11.709 c1.022,2.977 6.316,8.552 9.525,7.452 C161.43655725097656,186.50166889190675 166.22555725097655,184.16666889190674 166.29855725097656,176.19766889190674 zM263.66955725097654,151.32766889190674 c-0.9430000000000002,-5.161 -7.443,-9.161 -11.8,-8.625 c-4.6240000000000006,0.9640000000000002 -7.071,6.943 -6.878,10.192 c0.19000000000000006,3.179 2.254,9.272 8.168,9.083 C259.2255572509766,160.66666889190674 263.2255572509766,156.16666889190674 263.66955725097654,151.32766889190674 z" id="svg_2" class=""/><path fill-rule="evenodd" clip-rule="evenodd" fill="#ED1C24" d="M287.7875572509766,526.0716688919067 c-11.336,0.06700000000000003 -19.876,-8.418 -19.953,-19.83 c-0.07600000000000003,-11.173 9.151,-19.731 21.371,-19.826 c10.938,-0.08400000000000003 19.896,8.795 20.191,20.008 C309.6795572509766,517.1896688919068 299.99155725097654,526.0006688919067 287.7875572509766,526.0716688919067 z" id="svg_3" class=""/><polygon fill-rule="evenodd" clip-rule="evenodd" fill="#FFF200" points="182.24755477905273,444.27467823028564 172.58054733276367,442.99968433380127 171.29154586791992,432.8886613845825 161.19456100463867,432.8886613845825 159.69054794311523,442.99968433380127 150.8815574645996,444.27467823028564 150.8815574645996,451.4716691970825 160.3345603942871,453.31166553497314 162.27054977416992,465.48366260528564 171.29356002807617,465.26967334747314 173.01055526733398,452.45168018341064 182.24755477905273,451.4716691970825 " id="svg_4" class=""/><path fill="#00A79D" d="M380.87255725097657,513.8856688919068 c-0.09300000000000005,-1.8930000000000002 -0.2890000000000001,-3.8280000000000003 -0.022000000000000013,-5.683 c1.758,-12.195 -3.267,-18.207 -15.294,-22.269 c-40.226,-13.587 -65.774,-43.313 -83.245,-80.656 c-3.826,-8.175 -8.782,-17.699 4.181,-24.05 c11.19,-5.482 19.987,-6.28 27.085,6.45 c5.508,9.88 12.557,18.941 19.312,28.078 c10.852,14.685 24.243,26.134 43.396,32.543 c-3.7190000000000003,-35.095 -6.8950000000000005,-68.907 -10.955,-102.614 c-8.029,-66.665 -16.283,-133.307 -24.984,-199.887 c-3.672,-28.101 -7.797,-56.208 -13.433,-83.964 c-4.191,-20.643 -16.486,-28.316 -36.132,-23.055 c-31.887,8.539 -63.492,18.207 -94.969,28.181 c-30.156,9.555 -60.613,18.615 -89.796,30.66 c-26.573,10.969 -36.168,31.459 -32.991,59.444 c4.216,37.133 8.18,74.295 12.538,111.411 c3.781,32.2 7.958,64.354 12.1,97.666 c13.654,-5.492 22.945,-1.026 27.418,10.677 c4.615,12.08 0.11800000000000004,21.557 -11.437,28.038 c-8.878,4.98 -12.888,12.318 -11.304,23.409 c6.019,42.128 10.942,84.412 16.953,126.542 c3.053,21.399 12.644,29.768 34.133,29.913 c14.626,0.101 29.331,-1.216 43.884,-2.898 c47.921,-5.539 95.956,-10.436 143.626,-17.684 C382.28455725097655,557.8526688919068 382.92155725097655,555.5316688919067 380.87255725097657,513.8856688919068 zM117.74355725097655,307.24366889190674 c-2.216,-9.635 -5.093,-19.241 -6.059,-29.018 c-3.813,-38.587 -7.68,-77.193 -10.128,-115.88 c-1.369,-21.652 4.683,-29.078 25.093,-34.92 c46.272,-13.243 92.55,-26.516 139.134,-38.591 c18.268,-4.734 30.37,4.184 33.104,23.061 c6.639,45.832 12.396,91.79 17.496,130.096 c2.017,32.853 -7.482,46.194 -34.684,52.925 c-34.374,8.504 -69.08,15.677 -103.695,23.18 c-11.525,2.498 -23.146,4.832 -34.844,6.173 C130.37255725097657,325.73366889190675 120.85855725097656,320.79166889190674 117.74355725097655,307.24366889190674 zM178.16555725097658,544.9846688919067 c-9.969,2.046 -20.273,2.906 -30.468,3.032 c-2.102,0.026000000000000013 -4.782,-0.08900000000000004 -5.947,-7.674 c-1.082,-7.044 2.84,-8.786 5.987,-9.53 c5.458,-1.291 11.153,-0.8350000000000002 15.182,-1.586 c5.333,0 9.417,-1.6910000000000005 12.374,-1.497 c4.614,0.3030000000000001 7.947,4.703 8.559,7.805 C185.17455725097656,542.2416688919068 180.78755725097656,544.4476688919067 178.16555725097658,544.9846688919067 zM178.59555725097655,458.0836688919067 c-4.444,0.4860000000000001 2.142,12.111 -7.734,12.63 c-2.158,0.11300000000000003 -8.071,1.436 -9.883000000000001,0.12400000000000003 c-3.596,-2.6020000000000003 -2.863,-7.49 -6.445,-11.296 c-6.104,-6.485 -12.648,-0.3900000000000001 -12.649000000000001,-11.392 c-0.0010000000000000005,-7.397 13.509,-9.018 13.509,-9.018 s-1.536,-6.396 -1.015,-10.264 c0.3570000000000001,-2.653 16.913,-3.09 19.706,-1.982 c1.782,4.383 4.136,7.335 4.082,9.108 c5.272,3.555 5.459,1.419 12.163,5.937 C190.97255725097656,449.7706688919067 193.92255725097655,456.40666889190675 178.59555725097655,458.0836688919067 zM226.96855725097657,538.3956688919068 c-6.462,1.188 -16.039,1.7590000000000003 -26.167,3.567 c-10.473,1.358 -9.142,-2.4370000000000003 -10.14,-6.984 c-2.2,-10.028 6.929,-11.529 14.743,-12.445 c5.139,-0.6020000000000002 10.175,-0.785 15.337,-1.3920000000000001 c5.23,-0.6140000000000002 13.693,-1.613 14.324,8.079 C236.98355725097656,538.3956688919068 231.53955725097654,537.5546688919068 226.96855725097657,538.3956688919068 zM248.88155725097658,420.3046688919067 l24.089,32.726 l-34.046,9.314 L248.88155725097658,420.3046688919067 zM290.67655725097654,532.9516688919067 c-14.199,0 -25.71,-11.511 -25.71,-25.71 s11.511,-25.71 25.71,-25.71 s25.71,11.511 25.71,25.71 S304.87555725097656,532.9516688919067 290.67655725097654,532.9516688919067 z" id="svg_5" class=""/><path fill="#00AEEF" d="M249.13755725097656,426.98766889190676 c-2.935,11.8 -2.5220000000000002,19.326 -4.982,29.219 c9.198,-2.105 13.705,-3.14 21.969,-5.031 C260.24355725097655,442.80366889190674 255.58455725097656,436.1696688919067 249.13755725097656,426.98766889190676 z" id="svg_6" class=""/><g id="svg_7" class="">
	<path fill-rule="evenodd" clip-rule="evenodd" fill="#2BB673" d="M291.67655725097654,388.68566889190674 c5.069,4.764 7.61,7.151 12.272,11.533 c-0.7440000000000002,-6.118 -1.143,-9.393 -2.062,-16.936 c5.217,8.353 8.551,12.869 11.045,17.809 c29.936,59.308 98.948,79.16 156.173,52.801 c7.3950000000000005,-3.407 11.454,-1.843 14.606,5.112 c3.826,8.442 0.16800000000000007,14.037 -7.245,17.087 c-28.106,11.568 -56.683,16.578 -87.171,9.026 c-39.923,-9.889 -69.217,-33.943 -91.822,-66.7 C292.80355725097655,411.64966889190674 293.8575572509766,400.9316688919067 291.67655725097654,388.68566889190674 z" id="svg_8"/>
	<path fill-rule="evenodd" clip-rule="evenodd" fill="#2BB673" d="M100.64155725097658,519.5276688919067 c-20.112,-0.801 -36.022,-7.969 -46.575,-25.236 c-19.552,-31.991 -13.14,-74.978 15.569,-101.01 c11.675,-10.588000000000001 22.37,-23.901 46.296,-20.418 c-6.827,4.033 -10.73,6.338 -14.631,8.643 c0.4980000000000001,0.776 0.997,1.5510000000000002 1.494,2.326 c2.8200000000000003,0 5.641,0 8.461,0 c0.5980000000000002,0.5630000000000002 1.195,1.125 1.792,1.6860000000000004 c-3.7270000000000003,1.61 -7.454,3.218 -11.182,4.828 c0.9450000000000002,1.33 1.891,2.662 2.8360000000000003,3.992 c2.242,0.5730000000000002 4.484,1.1440000000000001 8.218,2.098 c-7.139,4.958 -14.242,8.308 -19.173,13.658 c-9.134,9.913 -19.524,19.876 -24.842,31.838 c-9.733,21.896 -1.932,41.62 19.584,52.516 C99.17955725097656,499.8616688919068 103.76455725097657,506.03066889190677 100.64155725097658,519.5276688919067 z" id="svg_9"/>
	<path fill-rule="evenodd" clip-rule="evenodd" fill="#2BB673" d="M406.86155725097655,687.1486688919067 c0,-24.685 -0.268,-47.704 0.11800000000000004,-70.713 c0.18300000000000005,-10.81 1.947,-21.583 2.4130000000000003,-32.397 c0.5640000000000002,-13.142 6.6770000000000005,-18.953 17.846,-16.777 c-1.353,32.387 -2.904,64.632 -3.898,96.894 c-0.24500000000000005,7.962 0.922,16.044 2.144,23.961 c1.864,12.087 -3.566,17.885 -15.112,18.684 c-5.648,0.3910000000000001 -11.561,1.031 -16.951,-0.2 c-3.911,-0.8930000000000002 -7.163,-4.675 -10.708,-7.167 c2.9530000000000003,-3.207 5.337,-7.682 8.992,-9.309 C396.65455725097655,687.9176688919067 402.5765572509766,687.8956688919068 406.86155725097655,687.1486688919067 z" id="svg_10"/>
	<path fill-rule="evenodd" clip-rule="evenodd" fill="#2BB673" d="M271.89655725097657,587.1416688919068 c0,12.996 -0.3560000000000001,26.177 0.08200000000000003,39.33 c0.7070000000000002,21.295 1.661,42.594 3.067,63.853 c0.6520000000000002,9.864 -3.228,14.011 -12.909,13.85 c-7.562,-0.125 -15.185,0.922 -22.677,0.26 c-2.993,-0.264 -5.705,-3.715 -8.544,-5.7170000000000005 c2.396,-2.98 4.204,-7.243 7.313,-8.668 c6.118,-2.8040000000000003 17.418,-2.609 18.568,-6.211 c2.366,-7.408 -0.8330000000000002,-16.485 -1.213,-24.9 c-0.8940000000000002,-19.801 -2.136,-39.623 -1.9580000000000002,-59.425 C253.74555725097656,586.0116688919068 255.68155725097654,585.3126688919067 271.89655725097657,587.1416688919068 z" id="svg_11"/>
	<path fill-rule="evenodd" clip-rule="evenodd" fill="#2BB673" d="M582.0365572509766,506.9996688919067 c-1.256,-33.577 -3.188,-67.167 -6.1530000000000005,-100.635 c-4.886,-55.125 -9.991,-110.259 -16.576,-165.2 c-6.241,-52.066 -13.921,-103.982 -22.132,-155.779 c-3.8120000000000003,-24.049 -13.675,-31.79 -37.928,-34.512 c-34.308,-3.849 -68.595,-7.977 -102.979,-10.994 c-22.839,-2.003 -45.832,-2.269 -66.072,-3.19 c4.38,20.014 9.733,38.93 12.509,58.22 c7.808,54.268 15.093,108.623 21.576,163.064 c7.047,59.176 13.609,118.43 18.897,177.784 c1.272,14.271 7.318,17.778 19.482,19.755 c22.368,3.632 29.54,1.3760000000000001 41.787,-16.608 c10.851,-15.934 32.104,-21.646 49.11,-13.196 c15.741,7.82 23.937,28.837 18.646,47.813 c-4.6290000000000004,16.599 -21.809,26.235 -39.607,25.46 c-26.961,-1.174 -54.011,-0.3060000000000001 -82.498,-0.3060000000000001 c0,17.734 0,37.658 0,58.88 c51.791,-4.247 105.084,-8.473 158.349,-13.049 C574.0675572509765,542.3076688919067 583.0055572509766,532.8836688919067 582.0365572509766,506.9996688919067 zM492.29655725097655,190.57666889190673 c-0.03800000000000001,2.8760000000000003 -3.027,8.543 -6.865,8.543 c-2.882,0 -7.144,-5.194 -7.222,-8.563 c-0.06700000000000003,-2.91 -0.0010000000000000005,-10.64 5.807,-10.592 C489.7855572509766,179.20266889190674 492.3325572509766,187.71366889190674 492.29655725097655,190.57666889190673 zM476.9675572509766,95.07666889190673 c5.77,-0.7610000000000002 8.316,7.75 8.28,10.613 c-0.03800000000000001,2.8760000000000003 -3.027,8.543 -6.865,8.543 c-2.882,0 -7.144,-5.194 -7.222,-8.563 C471.0935572509766,102.75866889190675 471.1595572509766,95.02866889190673 476.9675572509766,95.07666889190673 zM457.15755725097654,141.54166889190674 c5.77,-0.7610000000000002 8.316,7.75 8.28,10.613 c-0.03800000000000001,2.8760000000000003 -3.027,8.543 -6.865,8.543 c-2.882,0 -7.144,-5.194 -7.222,-8.563 C451.28355725097657,149.22366889190673 451.34955725097655,141.49366889190674 457.15755725097654,141.54166889190674 zM448.38455725097657,190.57666889190673 c-0.03800000000000001,2.8760000000000003 -3.027,8.543 -6.865,8.543 c-2.882,0 -7.144,-5.194 -7.222,-8.563 c-0.06700000000000003,-2.91 -0.0010000000000000005,-10.64 5.807,-10.592 C445.87355725097655,179.20266889190674 448.4205572509766,187.71366889190674 448.38455725097657,190.57666889190673 zM433.05555725097656,95.07666889190673 c5.77,-0.7610000000000002 8.316,7.75 8.28,10.613 c-0.03800000000000001,2.8760000000000003 -3.027,8.543 -6.865,8.543 c-2.882,0 -7.144,-5.194 -7.222,-8.563 C427.18155725097654,102.75866889190675 427.24755725097657,95.02866889190673 433.05555725097656,95.07666889190673 zM410.02155725097657,152.13366889190675 c-0.06700000000000003,-2.91 -0.0010000000000000005,-10.64 5.807,-10.592 c5.77,-0.7610000000000002 8.316,7.75 8.28,10.613 c-0.03800000000000001,2.8760000000000003 -3.027,8.543 -6.865,8.543 C414.36155725097655,160.69666889190674 410.09955725097655,155.50266889190675 410.02155725097657,152.13366889190675 zM505.4095572509766,160.69666889190674 c-2.882,0 -7.144,-5.195 -7.222,-8.564 c-0.06700000000000003,-2.91 -0.0010000000000000005,-10.64 5.807,-10.592 c5.77,-0.7610000000000002 8.316,7.75 8.28,10.613 C512.2365572509766,155.02966889190674 509.2465572509766,160.69666889190674 505.4095572509766,160.69666889190674 z" id="svg_12"/>
</g></g></svg>