<svg xmlns="http://www.w3.org/2000/svg" x="0px" y="0px"
width="96" height="96"
viewBox="0 0 192 192"
style=" fill:#000000;"><g fill="none" fill-rule="nonzero" stroke="none" stroke-width="1" stroke-linecap="butt" stroke-linejoin="miter" stroke-miterlimit="10" stroke-dasharray="" stroke-dashoffset="0" font-family="none" font-weight="none" font-size="none" text-anchor="none" style="mix-blend-mode: normal"><path d="M0,192v-192h192v192z" fill="none"></path><g id="Layer_1"><path d="M184.68,105.21c-0.33,8.1 -3.78,34.53 -34.08,34.53c-10.98,0 -19.05,-4.74 -24.6,-9.9c-1.5,-1.38 -2.82,-2.79 -3.96,-4.17c-0.57,-0.72 -1.44,-1.14 -2.34,-1.14c-0.81,0 -1.56,0.33 -2.13,0.96c-6.09,6.48 -16.74,14.25 -33,14.25c-8.07,0 -16.38,-2.61 -24.66,-7.68c-0.48,-0.3 -0.99,-0.45 -1.53,-0.45c-0.81,0 -1.65,0.36 -2.22,0.99c-0.39,0.45 -0.87,1.2 -0.75,2.31c0.72,7.53 1.29,12.9 1.74,16.02c0.27,1.71 0.51,3.24 0.75,4.68c0.81,4.86 1.44,8.7 1.44,14.79c0,9.21 -6.69,17.67 -14.34,18.54c-0.42,0.03 -0.84,0.06 -1.26,0.06c-8.16,0 -15.6,-8.88 -15.6,-18.6c0,-4.95 0.36,-7.83 0.87,-11.82c0.21,-1.44 0.42,-3.06 0.63,-5.01c0.18,-1.65 0.39,-3.27 0.6,-4.92c1.38,-11.19 2.94,-23.88 2.94,-54.81v-78.84c0,-3.3 2.67,-6 6,-6h17.82c3.3,0 6,2.7 6,6v76.5c0,12.27 6.81,25.5 21.75,25.5c18.03,0 26.25,-13.62 26.25,-26.25v-75.75c0,-3.3 2.7,-6 6,-6h18c3.3,0 6,2.7 6,6v83.91c0,17.07 6.81,19.02 11.91,19.02c5.76,0 9.54,-8.04 10.38,-13.77c0.45,-3 2.94,-5.16 5.94,-5.16h9.45c1.65,0 3.21,0.69 4.35,1.86c1.14,1.17 1.71,2.73 1.65,4.35z" fill="#f1c40f"></path><path d="M45,9v161.19c0,9.654 -14.07,11.949 -16.536,2.616c-0.21,-0.792 -0.324,-1.596 -0.324,-2.406c0,-4.95 0.36,-7.83 0.87,-11.82c0.21,-1.44 0.42,-3.06 0.63,-5.01c0.18,-1.65 0.39,-3.27 0.6,-4.92c1.38,-11.19 2.94,-23.88 2.94,-54.81v-78.84c0,-3.315 2.685,-6 6,-6z" fill="#e9e558"></path><g fill="#9f966c"><path d="M185.193,98.775c-1.689,-1.764 -4.062,-2.775 -6.507,-2.775h-9.456c-4.494,0 -8.238,3.249 -8.898,7.722c-0.783,5.307 -4.023,11.217 -7.425,11.217c-2.667,0 -8.91,0 -8.91,-16.047v-83.892c0,-4.962 -4.038,-9 -9,-9h-18c-4.962,0 -9,4.038 -9,9v75.75c0,8.634 -4.896,23.25 -23.25,23.25c-9.33,0 -18.747,-6.957 -18.747,-22.5v-76.5c0,-4.962 -4.038,-9 -9,-9h-17.832c-4.962,0 -9,4.038 -9,9v78.852c0,30.75 -1.548,43.332 -2.913,54.432c-0.204,1.656 -0.402,3.282 -0.594,4.929c-0.222,1.935 -0.429,3.537 -0.618,4.974c-0.534,4.104 -0.921,7.071 -0.921,12.201c0,11.511 8.697,21.609 18.609,21.609c9.912,0 18.609,-10.098 18.609,-21.609c0,-6.327 -0.684,-10.467 -1.473,-15.261c-0.234,-1.425 -0.486,-2.946 -0.741,-4.65c-0.444,-3.015 -1.047,-8.502 -1.737,-15.858c8.712,5.373 17.535,8.103 26.169,8.103c17.331,0 28.704,-8.265 35.193,-15.198c8.082,9.816 19.047,15.198 30.855,15.198c26.181,0 36.315,-19.311 37.071,-37.38c0.105,-2.421 -0.801,-4.815 -2.484,-6.567zM150.609,136.725c-12.993,0 -21.576,-7.338 -26.256,-12.981c-1.209,-1.458 -2.931,-2.202 -4.65,-2.202c-1.572,0 -3.147,0.621 -4.329,1.887c-5.316,5.679 -15.33,13.299 -30.81,13.299c-9,0 -17.112,-3.561 -23.079,-7.23c-0.999,-0.615 -2.061,-0.891 -3.096,-0.891c-3.309,0 -6.321,2.841 -5.97,6.579c0.561,5.955 1.224,12.429 1.776,16.179c1.104,7.407 2.148,11.403 2.148,19.029c0,8.67 -6.54,15.609 -12.609,15.609c-6.069,0 -12.609,-6.942 -12.609,-15.609c0,-6.501 0.669,-9.234 1.497,-16.485c1.497,-12.924 3.546,-24.429 3.546,-60.051v-78.858c0,-1.656 1.344,-3 3,-3h17.832c1.656,0 3,1.344 3,3v76.5c0,14.334 8.328,28.5 24.75,28.5c20.628,0 29.25,-15.852 29.25,-29.25v-75.75c0,-1.656 1.344,-3 3,-3h18c1.656,0 3,1.344 3,3v83.895c0,14.73 5.061,22.047 14.91,22.047c7.89,0 12.375,-9.666 13.359,-16.344c0.222,-1.491 1.455,-2.598 2.961,-2.598h9.456c1.695,0 3.069,1.398 3,3.093c-0.357,8.508 -3.828,31.632 -31.077,31.632z"></path><path d="M93,69.171h6c1.659,0 3,-1.341 3,-3c0,-1.659 -1.341,-3 -3,-3h-6c-1.659,0 -3,1.341 -3,3c0,1.659 1.341,3 3,3z"></path><path d="M93,54.171h6c1.659,0 3,-1.341 3,-3c0,-1.659 -1.341,-3 -3,-3h-6c-1.659,0 -3,1.341 -3,3c0,1.659 1.341,3 3,3z"></path><path d="M93,39.171h6c1.659,0 3,-1.341 3,-3c0,-1.659 -1.341,-3 -3,-3h-6c-1.659,0 -3,1.341 -3,3c0,1.659 1.341,3 3,3z"></path><path d="M93,24.171h6c1.659,0 3,-1.341 3,-3c0,-1.659 -1.341,-3 -3,-3h-6c-1.659,0 -3,1.341 -3,3c0,1.659 1.341,3 3,3z"></path><path d="M93,99.171h6c1.659,0 3,-1.341 3,-3c0,-1.659 -1.341,-3 -3,-3h-6c-1.659,0 -3,1.341 -3,3c0,1.659 1.341,3 3,3z"></path><path d="M93,84.171h6c1.659,0 3,-1.341 3,-3c0,-1.659 -1.341,-3 -3,-3h-6c-1.659,0 -3,1.341 -3,3c0,1.659 1.341,3 3,3z"></path><path d="M45,42c-1.659,0 -3,1.341 -3,3v54c0,1.659 1.341,3 3,3c1.659,0 3,-1.341 3,-3v-54c0,-1.659 -1.341,-3 -3,-3z"></path><path d="M45,18c-1.659,0 -3,1.341 -3,3v11.751c0,1.659 1.341,3 3,3c1.659,0 3,-1.341 3,-3v-11.751c0,-1.659 -1.341,-3 -3,-3z"></path></g></g></g></svg>
