<svg xmlns="http://www.w3.org/2000/svg" x="0px" y="0px"
width="100" height="100"
viewBox="0 0 192 192"
style=" fill:#000000;"><g fill="none" fill-rule="nonzero" stroke="none" stroke-width="1" stroke-linecap="butt" stroke-linejoin="miter" stroke-miterlimit="10" stroke-dasharray="" stroke-dashoffset="0" font-family="none" font-weight="none" font-size="none" text-anchor="none" style="mix-blend-mode: normal"><path d="M0,192v-192h192v192z" fill="none"></path><g id="Layer_1"><path d="M133.437,177c-15.549,0 -24.462,-11.124 -24.462,-30.522c0,-13.875 2.715,-30.051 5.85,-48.786c2.076,-12.384 5.94,-39.618 7.287,-49.191c0.255,-1.806 -1.149,-3.408 -2.973,-3.408h-33.972c-1.545,0 -2.838,1.158 -2.985,2.697c-0.69,7.218 -2.577,27.06 -3.381,36.531c-5.883,69.33 -6.552,92.679 -32.277,92.679c-8.88,0 -17.829,-5.52 -17.829,-17.829c0,-7.557 3.813,-11.055 7.938,-13.719c23.433,-16.467 30.735,-81.732 32.145,-97.104c0.162,-1.758 -1.227,-3.255 -2.991,-3.255h-12.528c-12.885,0 -24.828,6.741 -32.784,21.645c-1.392,2.802 -2.193,3.291 -3.375,3.291c-0.33,0 -1.725,-0.348 -1.725,-1.113c0,-16.716 17.601,-47.916 51.258,-47.916h98.742c3.315,0 6,2.685 6,6v12.093c0,3.315 -2.685,6 -6,6h-26.652c-1.527,0 -2.808,1.131 -2.979,2.649c-1.698,15.153 -9.555,90.561 1.002,102.15c2.715,3.204 6.111,4.824 10.062,4.824c10.029,0 17.085,-5.628 20.988,-13.344c0.642,-1.269 2.532,-0.63 2.301,0.774c-4.683,28.353 -21.888,34.854 -36.66,34.854z" fill="#7893ed"></path><g fill="#8cacf9"><path d="M114.825,97.695c-3.135,18.735 -5.85,34.908 -5.85,48.786c0,2.163 0.129,4.206 0.348,6.159c0.807,-11.793 3.012,-25.047 5.502,-39.942c2.541,-15.165 7.764,-52.599 7.764,-52.599h-2.124c-1.74,12.165 -4.149,28.698 -5.64,37.596z"></path><path d="M36.633,145.452c-4.125,2.664 -7.938,6.165 -7.938,13.719c0,3.042 0.549,5.664 1.506,7.896c1.488,-3.015 3.264,5.571 5.799,3.933c39,-33 33.051,-110.907 33.051,-110.907h-1.566c-3.081,24.483 -11.412,71.7 -30.852,85.359z"></path><path d="M165.375,21h-98.742c-33.657,0 -51.258,31.2 -51.258,47.913c0,0.765 1.392,1.113 1.725,1.113c0.549,0 1.017,-0.117 1.497,-0.51c6.489,-15.861 22.716,-33.516 48.036,-33.516h104.742v-9c0,-3.315 -2.685,-6 -6,-6z"></path></g><g fill="#796c9f"><path d="M165.375,48.093c4.962,0 9,-4.038 9,-9v-12.093c0,-4.962 -4.038,-9 -9,-9h-98.742c-35.622,0 -54.258,33.147 -54.258,50.916c0,2.685 2.742,4.113 4.722,4.113c3.327,0 4.818,-2.448 6.024,-4.878c7.008,-13.122 17.43,-20.058 30.141,-20.058l12.528,-0.018c-1.197,13.065 -8.316,79.065 -30.783,94.857c-4.605,2.97 -9.312,7.227 -9.312,16.239c0,14.31 10.8,20.826 20.829,20.826c27.255,0 29.214,-23.361 34.455,-85.794l0.813,-9.633c0.861,-10.167 2.964,-32.187 3.375,-36.48l33.975,-0.009c-1.509,10.722 -5.241,36.969 -7.314,49.341c-3.141,18.771 -5.853,34.983 -5.853,49.053c0,20.991 10.266,33.522 27.462,33.522c15.258,0 34.518,-6.483 39.618,-37.368c0.345,-2.085 -0.858,-4.077 -2.859,-4.731c-1.992,-0.648 -4.125,0.237 -5.079,2.118c-2.208,4.368 -7.527,11.694 -18.309,11.694c-3.084,0 -5.628,-1.23 -7.845,-3.843c-7.032,-7.716 -5.187,-55.683 -0.24,-99.777h26.652zM132.762,47.409c-3.078,27.456 -9.069,92.607 1.695,104.424c3.264,3.849 7.536,5.883 12.351,5.883c7.146,0 13.509,-2.67 18.339,-7.533c-4.938,15.813 -15.576,23.817 -31.71,23.817c-18.675,0 -21.462,-17.244 -21.462,-27.522c0,-13.569 2.676,-29.556 5.811,-48.291c2.046,-12.213 5.787,-38.523 7.299,-49.266c0.243,-1.719 -0.27,-3.453 -1.41,-4.764c-1.14,-1.314 -2.793,-2.064 -4.536,-2.064h-33.972c-3.108,0 -5.676,2.325 -5.967,5.412c-0.414,4.317 -2.52,26.367 -3.384,36.564l-0.816,9.636c-5.343,63.648 -7.602,80.295 -28.476,80.295c-6.84,0 -14.829,-3.882 -14.829,-14.826c0,-5.796 2.514,-8.58 6.666,-11.265c24.105,-16.938 31.665,-80.277 33.408,-99.285c0.153,-1.671 -0.408,-3.336 -1.536,-4.572c-1.137,-1.245 -2.754,-1.956 -4.44,-1.956h-12.528c-14.136,0 -26.217,7.476 -34.281,21.186c3.24,-16.149 19.467,-39.282 47.649,-39.282h98.742c1.656,0 3,1.344 3,3v12.093c0,1.656 -1.344,3 -3,3h-26.652c-3.057,0 -5.622,2.286 -5.961,5.316z"></path><path d="M18,159.009c0,-1.659 -1.341,-3 -3,-3h-6c-1.659,0 -3,1.341 -3,3c0,1.659 1.341,3 3,3h6c1.659,0 3,-1.341 3,-3z"></path><path d="M27.666,131.433l-4.242,-4.242c-1.173,-1.173 -3.069,-1.173 -4.242,0c-1.173,1.173 -1.173,3.069 0,4.242l4.242,4.242c0.585,0.585 1.353,0.879 2.121,0.879c0.768,0 1.536,-0.294 2.121,-0.879c1.17,-1.173 1.17,-3.072 0,-4.242z"></path><path d="M16.497,169.713l-5.562,2.25c-1.536,0.621 -2.277,2.37 -1.656,3.906c0.471,1.167 1.593,1.875 2.781,1.875c0.375,0 0.756,-0.069 1.125,-0.219l5.562,-2.25c1.536,-0.621 2.277,-2.37 1.656,-3.906c-0.621,-1.536 -2.367,-2.277 -3.906,-1.656z"></path><path d="M19.035,142.182l-5.523,-2.343c-1.524,-0.642 -3.285,0.063 -3.936,1.59c-0.648,1.527 0.063,3.288 1.59,3.936l5.523,2.343c0.384,0.162 0.78,0.237 1.173,0.237c1.167,0 2.277,-0.687 2.763,-1.827c0.648,-1.53 -0.063,-3.291 -1.59,-3.936z"></path></g></g></g></svg>
